<?xml version="1.0" encoding="UTF-8"?>
<svg id="Capa_1" xmlns="http://www.w3.org/2000/svg" version="1.1" viewBox="0 0 1000 562.41">
  <!-- Generator: Adobe Illustrator 29.6.0, SVG Export Plug-In . SVG Version: 2.1.1 Build 207)  -->
  <defs>
    <style>
      .st0 {
        fill: #fff;
      }
    </style>
  </defs>
  <g>
    <path class="st0" d="M303.77,7.39v251.29h-78.44v-125.29l-38.69,125.29h-67.44l-38.69-125.29v125.29H1.73V7.39h96.54l55.37,150.85L207.59,7.39h96.19Z"/>
    <path class="st0" d="M382.39,244.48c-19.76-11.12-35.44-26.5-47.03-46.14-11.6-19.64-17.39-41.76-17.39-66.37s5.8-46.73,17.39-66.37c11.59-19.64,27.27-34.96,47.03-45.96,19.75-11,41.47-16.5,65.13-16.5s45.31,5.5,64.95,16.5c19.64,11,35.19,26.33,46.67,45.96,11.47,19.64,17.21,41.77,17.21,66.37s-5.74,46.73-17.21,66.37c-11.48,19.64-27.1,35.02-46.85,46.14-19.76,11.12-41.35,16.68-64.77,16.68s-45.38-5.56-65.13-16.68ZM483.72,172.61c8.52-10.05,12.78-23.6,12.78-40.64s-4.26-30.93-12.78-40.99c-8.52-10.05-20.59-15.08-36.2-15.08s-28.04,5.03-36.56,15.08c-8.52,10.06-12.78,23.72-12.78,40.99s4.26,30.59,12.78,40.64c8.52,10.06,20.7,15.08,36.56,15.08s27.68-5.02,36.2-15.08Z"/>
    <path class="st0" d="M669.35,199.05h75.96v59.63h-154.75V7.39h78.79v191.66Z"/>
  </g>
  <g>
    <path class="st0" d="M490.46,558.6l-24.14-39.75c-5.45.94-11.71,1.42-18.81,1.42-23.66,0-45.38-5.56-65.13-16.68-19.76-11.12-35.44-26.5-47.03-46.14-11.6-19.64-17.39-41.76-17.39-66.37s5.8-46.73,17.39-66.37c11.59-19.64,27.27-34.96,47.03-45.96,19.75-11,41.47-16.5,65.13-16.5s45.31,5.5,64.95,16.5c19.64,11,35.19,26.33,46.67,45.96,11.47,19.64,17.21,41.77,17.21,66.37,0,20.11-3.9,38.63-11.71,55.55-7.81,16.92-18.58,31.29-32.3,43.12l51.11,68.86h-92.99ZM410.95,431.71c8.52,10.06,20.7,15.08,36.56,15.08s27.68-5.02,36.2-15.08c8.52-10.05,12.78-23.6,12.78-40.64s-4.26-30.93-12.78-40.99c-8.52-10.05-20.59-15.08-36.2-15.08s-28.04,5.03-36.56,15.08c-8.52,10.06-12.78,23.72-12.78,40.99s4.26,30.59,12.78,40.64Z"/>
    <path class="st0" d="M667.56,266.49v141.62c0,11.6,2.54,20.76,7.63,27.51,5.08,6.74,13.31,10.12,24.67,10.12s19.75-3.37,25.2-10.12c5.44-6.74,8.16-15.91,8.16-27.51v-141.62h78.44v141.62c0,23.9-4.97,44.31-14.91,61.23-9.94,16.92-23.55,29.64-40.82,38.16-17.28,8.52-36.56,12.78-57.85,12.78s-40.17-4.26-56.61-12.78c-16.45-8.52-29.28-21.17-38.51-37.98-9.23-16.8-13.84-37.27-13.84-61.4v-141.62h78.44Z"/>
    <path class="st0" d="M910.33,329.31v30.88h78.08v59.27h-78.08v35.49h88.73v62.82h-167.53v-251.29h167.53v62.82h-88.73Z"/>
  </g>
</svg>