<?xml version="1.0" encoding="UTF-8"?>
<svg id="Capa_2" xmlns="http://www.w3.org/2000/svg" version="1.1" viewBox="0 0 1000 480.56">
  <!-- Generator: Adobe Illustrator 29.6.0, SVG Export Plug-In . SVG Version: 2.1.1 Build 207)  -->
  <defs>
    <style>
      .st0 {
        fill: #ea2f2f;
      }
    </style>
  </defs>
  <path class="st0" d="M436.14,361.71c-19.94,35.43-47.52,63.55-82.75,84.34-35.22,20.8-74.89,31.19-119.03,31.19s-83.8-10.39-119.03-31.19c-35.22-20.79-62.7-48.9-82.43-84.34C13.19,326.29,3.32,287.35,3.32,244.92s9.87-81.25,29.6-116.48c19.73-35.22,47.21-63.11,82.43-83.7,35.23-20.58,74.9-30.87,119.03-30.87s83.81,10.29,119.03,30.87c35.23,20.59,62.8,48.59,82.75,84.02,19.95,35.43,29.92,74.15,29.92,116.16s-9.97,81.37-29.92,116.8ZM307.25,179.99c-18.03-15.28-42.33-22.91-72.88-22.91s-55.47,7.64-73.52,22.91c-18.03,15.28-27.05,36.92-27.05,64.92s9.02,50.28,27.05,65.56c18.04,15.28,42.55,22.91,73.52,22.91s54.85-7.64,72.88-22.91c18.04-15.28,27.05-37.13,27.05-65.56s-9.01-49.65-27.05-64.92Z"/>
  <path class="st0" d="M995.86,167.91l-71.29,43.28c1.69,9.77,2.55,21,2.55,33.73,0,42.44-9.97,81.37-29.92,116.8-19.94,35.43-47.52,63.55-82.75,84.34-35.22,20.8-74.89,31.19-119.03,31.19s-83.8-10.39-119.03-31.19c-35.22-20.79-62.7-48.9-82.43-84.34-19.73-35.43-29.6-74.36-29.6-116.8s9.87-81.25,29.6-116.48c19.73-35.22,47.21-63.11,82.43-83.7,35.23-20.58,74.9-30.87,119.03-30.87,36.07,0,69.28,7,99.61,21,30.34,14,56.12,33.32,77.34,57.92L995.86,1.15v166.76ZM768.31,310.49c18.04-15.28,27.05-37.13,27.05-65.56s-9.01-49.65-27.05-64.92c-18.03-15.28-42.33-22.91-72.88-22.91s-55.47,7.64-73.52,22.91c-18.03,15.28-27.05,36.92-27.05,64.92s9.02,50.28,27.05,65.56c18.04,15.28,42.55,22.91,73.52,22.91s54.85-7.64,72.88-22.91Z"/>
</svg>