<?xml version="1.0" encoding="UTF-8"?>
<svg xmlns="http://www.w3.org/2000/svg" version="1.1" viewBox="0 0 200 200">
  <!-- Generator: Adobe Illustrator 29.6.0, SVG Export Plug-In . SVG Version: 2.1.1 Build 207)  -->
  <defs>
    <style>
      .st0, .st1 {
        fill: #fff;
        fill-rule: evenodd;
      }

      .st2, .st1 {
        display: none;
      }
    </style>
  </defs>
  <g id="Capa_1" class="st2">
    <rect x=".08" y="-.1" width="200.47" height="200.24"/>
  </g>
  <g id="Capa_2">
    <path class="st1" d="M135.17,128.66c-10.45-5.07-8.95-14.92-16.42-21.78-4.47-3.58-10.45-3.58-15.81,0-.6.89-2.09,1.49-2.98,2.98-.89-.6-1.49-2.09-2.98-2.98-5.38-3.58-11.94-3.58-15.82,0-7.45,6.86-5.97,16.71-16.7,21.78-7.46,3.88-20.29,3.28-27.75-5.96,0,6.86,18.8,25.66,39.09,25.06,14.32-.89,22.08-9.85,24.76-15.81,2.98,5.97,10.74,14.92,25.06,15.81,20.29.6,39.08-18.2,39.08-25.06-9.25,9.25-21.78,9.84-29.54,5.96h0ZM133.98,81.22c3.88,0,7.46-3.28,7.46-7.46,0-3.88-3.58-7.46-7.46-7.46-4.47,0-7.76,3.58-7.76,7.46,0,4.17,3.29,7.46,7.76,7.46h0ZM58.49,73.76c0-3.88,3.28-7.46,7.76-7.46,3.87,0,7.46,3.58,7.46,7.46,0,4.17-3.59,7.46-7.46,7.46-4.48,0-7.76-3.28-7.76-7.46h0ZM137.56,11.41H62.08c-14.03,0-26.86,5.66-36.11,14.91-9.25,9.25-14.91,22.08-14.91,36.11v75.48c0,14.33,5.67,26.85,14.91,36.11,9.25,9.25,22.08,15.21,36.11,15.21h75.48c14.31,0,26.86-5.97,36.11-15.21,9.54-9.25,15.21-21.78,15.21-36.11V62.43c0-14.03-5.67-26.85-15.21-36.11-9.25-9.25-21.8-14.91-36.11-14.91h0ZM62.08,2.16h75.48c16.71,0,31.92,6.86,42.67,17.6,11.04,11.04,17.91,26.26,17.91,42.67v75.48c0,16.71-6.87,31.93-17.91,42.67-10.74,11.04-25.95,17.9-42.67,17.9H62.08c-16.42,0-31.64-6.86-42.68-17.9-10.73-10.75-17.6-25.96-17.6-42.67V62.43c0-16.41,6.87-31.63,17.6-42.67C30.44,9.02,45.66,2.16,62.08,2.16h0Z"/>
    <path class="st1" d="M62.08,2.15h75.49c16.71,0,31.92,6.87,42.66,17.61,11.04,11.04,17.91,26.25,17.91,42.67v75.48c0,16.71-6.87,31.92-17.91,42.67-10.73,11.04-25.95,17.91-42.66,17.91H62.08c-16.42,0-31.63-6.86-42.67-17.91-10.74-10.74-17.61-25.95-17.61-42.67V62.43c0-16.41,6.86-31.63,17.61-42.67C30.45,9.03,45.66,2.15,62.08,2.15h0ZM127.42,128.97h7.46v7.45c0,7.46-7.46,14.92-15.22,14.92h-52.51v-7.46h48.94c5.96,0,11.33-5.38,11.33-11.34h0v-3.58ZM187.39,50.19c-22.08-2.38-58.48-1.49-84.44,4.78h-3.58c-26.25-6.27-63.85-7.16-85.62-4.47l-1.8,2.98c1.8-10.44,6.87-19.99,14.03-27.16,9.25-9.25,22.08-14.91,36.1-14.91h75.49c14.32,0,26.85,5.67,36.1,14.91,6.55,6.57,11.34,14.93,13.72,23.87h0ZM80.27,99.72c8.36-3.57,11.04-13.42,11.04-13.42,0,0,3.59-8.36,6.27-16.71,0-.89,1.79-1.79,2.68-2.68,1.19.89,3,.89,3,2.68,2.68,8.36,6.26,16.71,6.26,16.71,0,0,3.59,9.85,11.04,13.42,8.06,3.88,15.51,3.88,27.15,3.88s22.98-2.98,22.98-2.98c0,0,8.05-1.79,11.64-15.21,3.88-13.73,4.77-17.61,4.77-17.61,0,0,.6-.89,1.79-2.09v72.2c0,14.03-5.96,26.86-15.21,36.11-9.25,9.24-21.79,14.91-36.1,14.91H62.08c-14.02,0-26.85-5.68-36.1-14.91-9.25-9.25-14.92-22.08-14.92-36.11v-72.2c1.19,1.19,1.79,2.09,1.79,2.09,0,0,1.79,3.88,5.38,17.61,3.58,13.42,11.94,15.21,11.94,15.21,0,0,11.04,2.98,22.97,2.98s19.1-1.19,27.15-3.88h0Z"/>
    <path class="st1" d="M133.98,58.84c-4.18,0-7.46,3.28-7.46,7.46s3.29,7.46,7.46,7.46c3.88,0,7.46-3.28,7.46-7.46s-3.59-7.46-7.46-7.46h0ZM88.63,66.3h-29.83v7.46h29.83v-7.46ZM99.97,126.57c22.68,0,34.01-7.46,34.01-7.46,0,0-7.46,22.68-34.01,22.68s-33.71-22.68-33.71-22.68c0,0,11.03,7.46,33.71,7.46h0ZM137.86,11.41H62.38c-14.33,0-27.16,5.66-36.11,14.91-9.24,9.25-15.21,22.08-15.21,36.11v75.48c0,14.33,5.97,26.85,15.21,36.11,8.95,9.25,21.78,15.21,36.11,15.21h75.48c14.03,0,26.86-5.97,35.8-15.21,9.56-9.25,15.22-21.78,15.22-36.11V62.43c0-14.03-5.66-26.85-15.22-36.11-8.94-9.25-21.77-14.91-35.8-14.91h0ZM62.38,2.16h75.48c16.42,0,31.62,6.86,42.67,17.6,10.74,11.04,17.61,26.26,17.61,42.67v75.48c0,16.71-6.87,31.93-17.61,42.67-11.04,11.04-26.25,17.9-42.67,17.9H62.38c-16.71,0-31.92-6.86-42.97-17.9-10.74-10.75-17.61-25.96-17.61-42.67V62.43c0-16.41,6.86-31.63,17.61-42.67C30.46,9.02,45.67,2.16,62.38,2.16h0Z"/>
    <path class="st0" d="M116.38,79.92l5.37,5.37,15.82-15.82,15.82,15.82,5.08-5.37-20.9-20.89-21.19,20.89ZM58.48,126.78v7.47s14.93,14.92,41.19,14.92,41.79-14.92,41.79-14.92v-7.47s-15.22,14.92-41.79,14.92-41.19-14.92-41.19-14.92h0ZM62.36,69.47l-15.82,15.82-5.37-5.37,21.2-20.89,20.89,20.89-5.07,5.37-15.82-15.82ZM137.58,11.57H62.06c-14.02,0-26.86,5.67-36.11,14.92-9.25,9.25-14.92,22.08-14.92,36.11v75.53c0,14.03,5.67,26.86,14.92,36.11,9.25,9.26,22.09,14.93,36.11,14.93h75.52c14.03,0,26.86-5.67,36.12-14.93,9.25-9.25,14.93-22.08,14.93-36.11V62.6c0-14.03-5.68-26.85-14.93-36.11-9.25-9.26-22.09-14.92-36.12-14.92h0ZM62.06,2.02h75.52c16.72,0,31.94,6.87,42.69,17.91,11.04,11.04,17.9,25.97,17.9,42.67v75.53c0,16.72-6.86,31.64-17.9,42.68-10.75,11.05-25.97,17.9-42.69,17.9H62.06c-16.41,0-31.64-6.86-42.68-17.9-11.05-11.05-17.61-25.97-17.61-42.68V62.6c0-16.7,6.56-31.63,17.61-42.67C30.42,8.89,45.65,2.02,62.06,2.02h0Z"/>
  </g>
</svg>