<?xml version="1.0" encoding="UTF-8"?>
<svg id="Capa_2" xmlns="http://www.w3.org/2000/svg" version="1.1" viewBox="0 0 1000 480.56">
  <!-- Generator: Adobe Illustrator 29.6.0, SVG Export Plug-In . SVG Version: 2.1.1 Build 207)  -->
  <defs>
    <style>
      .st0 {
        fill: #fff;
      }
    </style>
  </defs>
  <path class="st0" d="M997.86,1.15l-123.48,91.66c-21.21-24.61-46.99-43.92-77.34-57.92-30.33-14.01-63.54-21.01-99.61-21.01-44.13,0-83.8,10.29-119.02,30.87-35.22,20.59-62.7,48.49-82.43,83.7-19.73,35.23-29.6,74.05-29.6,116.48s9.87,81.37,29.6,116.8c19.73,35.43,47.21,63.55,82.43,84.34,35.22,20.79,74.89,31.18,119.02,31.18s83.81-10.39,119.03-31.18c35.22-20.79,62.8-48.91,82.74-84.34,19.95-35.43,29.92-74.36,29.92-116.8,0-12.73-.86-23.97-2.55-33.73l71.29-43.29V1.15ZM770.31,310.49c-18.03,15.28-42.33,22.91-72.88,22.91s-55.47-7.63-73.51-22.91c-18.03-15.28-27.06-37.12-27.06-65.56s9.03-49.65,27.06-64.92c18.04-15.28,42.54-22.92,73.51-22.92s54.85,7.64,72.88,22.92c18.04,15.27,27.05,36.92,27.05,64.92s-9.01,50.28-27.05,65.56Z"/>
  <path class="st0" d="M353.4,44.74c-35.22-20.58-74.89-30.87-119.03-30.87s-83.8,10.29-119.02,30.87c-35.22,20.59-62.7,48.48-82.43,83.7C13.19,163.67,3.32,202.49,3.32,244.92s9.87,81.37,29.6,116.8c19.73,35.43,47.21,63.55,82.43,84.33,35.22,20.8,74.9,31.19,119.02,31.19s83.81-10.39,119.03-31.19c35.23-20.78,62.8-48.9,82.74-84.33,19.95-35.43,29.92-74.36,29.92-116.8s-9.97-80.73-29.92-116.16c-19.94-35.43-47.51-63.43-82.74-84.02ZM307.25,310.48c-18.03,15.27-42.32,22.91-72.88,22.91s-55.47-7.64-73.51-22.91c-18.03-15.28-27.05-37.13-27.05-65.56s9.02-49.65,27.05-64.92c18.04-15.28,42.54-22.92,73.51-22.92s54.85,7.64,72.88,22.92c18.04,15.27,27.05,36.91,27.05,64.92s-9.01,50.28-27.05,65.56Z"/>
</svg>