<?xml version="1.0" encoding="UTF-8"?>
<svg xmlns="http://www.w3.org/2000/svg" version="1.1" viewBox="0 0 1920 400">
  <!-- Generator: Adobe Illustrator 29.6.0, SVG Export Plug-In . SVG Version: 2.1.1 Build 207)  -->
  <defs>
    <style>
      .st0 {
        fill: #03ff5a;
      }

      .st0, .st1 {
        display: none;
      }

      .st2, .st3 {
        fill: none;
        stroke: #fff;
      }

      .st3 {
        stroke-miterlimit: 10;
        stroke-width: .25px;
      }
    </style>
  </defs>
  <g id="Capa_1" class="st1">
    <g>
      <polygon class="st2" points="43.02 171.92 33.07 171.92 33.07 236.96 72.49 236.96 72.49 228.41 43.02 228.41 43.02 171.92"/>
      <path class="st2" d="M123.24,175.06c-4.41-2.68-9.42-4.02-15.04-4.02s-10.65,1.34-15.08,4.02c-4.44,2.68-7.93,6.51-10.48,11.5-2.55,4.99-3.82,10.96-3.82,17.92s1.27,12.89,3.82,17.88c2.55,4.99,6.04,8.82,10.48,11.48,4.44,2.66,9.47,3.99,15.08,3.99s10.63-1.33,15.04-3.99,7.89-6.49,10.43-11.48c2.55-4.99,3.82-10.95,3.82-17.88s-1.27-12.93-3.82-17.92c-2.55-4.99-6.02-8.83-10.43-11.5ZM125.07,217.78c-1.7,3.62-4.02,6.36-6.94,8.21-2.92,1.85-6.24,2.77-9.93,2.77s-7.06-.93-10-2.79c-2.94-1.86-5.26-4.6-6.96-8.21-1.7-3.61-2.55-8.03-2.55-13.27s.85-9.71,2.55-13.34c1.7-3.62,4.02-6.37,6.96-8.23,2.94-1.86,6.27-2.79,10-2.79s7.01.92,9.93,2.77c2.92,1.85,5.24,4.58,6.94,8.21,1.7,3.62,2.55,8.08,2.55,13.38s-.85,9.67-2.55,13.29Z"/>
      <path class="st2" d="M226.05,222.36c2.55-4.99,3.82-10.95,3.82-17.88s-1.27-12.93-3.82-17.92c-2.55-4.99-6.02-8.83-10.43-11.5s-9.42-4.02-15.04-4.02-10.65,1.34-15.08,4.02c-4.44,2.68-7.93,6.51-10.48,11.5-2.55,4.99-3.82,10.96-3.82,17.92s1.27,12.89,3.82,17.88c2.55,4.99,6.04,8.82,10.48,11.48,4.44,2.66,9.47,3.99,15.08,3.99,4.21,0,8.08-.75,11.61-2.24l5.55,7.26h9.91l-8.7-11.4c2.87-2.41,5.24-5.43,7.11-9.09ZM217.45,217.78c-1.16,2.48-2.62,4.53-4.35,6.17l-6.15-7.99h-9.56l9.06,11.9c-1.84.59-3.79.89-5.88.89-3.73,0-7.06-.93-10-2.79-2.94-1.86-5.26-4.6-6.96-8.21-1.7-3.61-2.55-8.03-2.55-13.27s.85-9.71,2.55-13.34c1.7-3.62,4.02-6.37,6.96-8.23,2.94-1.86,6.27-2.79,10-2.79s7.01.92,9.93,2.77c2.92,1.85,5.24,4.58,6.94,8.21,1.7,3.62,2.55,8.08,2.55,13.38s-.85,9.67-2.55,13.29Z"/>
      <path class="st2" d="M283.96,213.78c0,2.94-.64,5.54-1.92,7.81-1.28,2.27-3.11,4.06-5.48,5.37-2.37,1.31-5.19,1.96-8.45,1.96s-6.13-.66-8.51-1.96c-2.39-1.31-4.23-3.1-5.52-5.37-1.29-2.27-1.94-4.87-1.94-7.81v-41.87h-9.95v42.7c0,4.54,1.07,8.56,3.21,12.07,2.14,3.51,5.16,6.26,9.06,8.27,3.9,2.01,8.45,3.01,13.66,3.01s9.71-1,13.6-3.01c3.89-2.01,6.9-4.77,9.04-8.27,2.14-3.51,3.21-7.53,3.21-12.07v-42.7h-10v41.87Z"/>
      <polygon class="st2" points="318.32 208.37 347.08 208.37 347.08 199.86 318.32 199.86 318.32 180.47 349.31 180.47 349.31 171.92 308.36 171.92 308.36 236.96 349.57 236.96 349.57 228.41 318.32 228.41 318.32 208.37"/>
      <polygon class="st2" points="428.28 199.42 396.07 199.42 396.07 171.92 386.11 171.92 386.11 236.96 396.07 236.96 396.07 207.98 428.28 207.98 428.28 236.96 438.28 236.96 438.28 171.92 428.28 171.92 428.28 199.42"/>
      <path class="st2" d="M470.85,171.92l-23.14,65.05h10.78l5.82-17.16h25.55l6,17.16h10.78l-23.57-65.05h-12.22ZM486.96,211.51h-19.84l3.64-10.74c.9-2.79,1.94-6.21,3.12-10.24.91-3.12,1.92-6.73,3.01-10.82,1.13,4.03,2.15,7.59,3.06,10.67,1.18,3.99,2.26,7.45,3.25,10.39l3.76,10.74Z"/>
      <path class="st2" d="M554.47,221.38c-1.03,1.6-2.3,2.95-3.8,4.04s-3.16,1.92-4.98,2.49c-1.82.57-3.75.85-5.78.85-3.7,0-7.01-.92-9.95-2.77-2.94-1.85-5.27-4.58-6.98-8.21-1.72-3.62-2.58-8.05-2.58-13.29s.84-9.67,2.53-13.29c1.69-3.62,4.01-6.37,6.96-8.25,2.95-1.88,6.29-2.82,10.02-2.82,2.04,0,3.97.28,5.81.83s3.49,1.38,4.98,2.49,2.74,2.45,3.78,4.04c1.03,1.59,1.75,3.41,2.16,5.48h10c-.55-3.43-1.61-6.5-3.17-9.21-1.56-2.71-3.52-5.01-5.89-6.9-2.37-1.89-5.06-3.33-8.08-4.32-3.01-.99-6.24-1.48-9.67-1.48-5.62,0-10.64,1.34-15.06,4.02-4.42,2.68-7.9,6.51-10.43,11.5-2.53,4.99-3.8,10.96-3.8,17.92s1.27,12.89,3.8,17.88c2.53,4.99,6.01,8.82,10.43,11.48,4.42,2.66,9.44,3.99,15.06,3.99,3.58,0,6.89-.53,9.93-1.59,3.04-1.06,5.74-2.58,8.1-4.56,2.36-1.98,4.29-4.3,5.81-6.96,1.51-2.66,2.52-5.59,3.01-8.8h-10.04c-.41,2.04-1.13,3.86-2.16,5.46Z"/>
      <polygon class="st2" points="588.33 208.37 617.09 208.37 617.09 199.86 588.33 199.86 588.33 180.47 619.32 180.47 619.32 171.92 578.37 171.92 578.37 236.96 619.58 236.96 619.58 228.41 588.33 228.41 588.33 208.37"/>
      <path class="st2" d="M670.79,209.24c-.41,1.11-.87,2.53-1.4,4.28s-1.06,3.61-1.62,5.59c-.55,1.98-1.08,3.92-1.57,5.83-.08.32-.16.63-.24.94-.09-.36-.18-.72-.28-1.09-.5-1.92-1.02-3.87-1.57-5.85-.55-1.98-1.08-3.81-1.59-5.5-.51-1.69-.97-3.08-1.38-4.19l-14.19-37.33h-14.67v65.05h9.69v-35.01c0-1.43-.02-3.09-.07-5-.04-1.91-.09-3.92-.13-6.05-.04-2.12-.09-4.23-.13-6.31-.02-.93-.04-1.82-.06-2.68.38,1.21.76,2.43,1.13,3.65.7,2.26,1.38,4.42,2.05,6.5s1.29,3.97,1.86,5.67c.57,1.7,1.07,3.11,1.51,4.21l13.49,35.01h8.51l13.31-35.01c.41-1.13.91-2.57,1.51-4.3.6-1.73,1.22-3.65,1.88-5.74s1.32-4.27,2.01-6.53c.39-1.28.76-2.53,1.11-3.77-.02,1.08-.04,2.18-.06,3.31-.04,2.12-.09,4.23-.13,6.31-.04,2.08-.08,4.05-.11,5.92-.03,1.86-.04,3.46-.04,4.8v35.01h9.91v-65.05h-14.76l-13.97,37.33Z"/>
      <path class="st2" d="M756.03,175.06c-4.41-2.68-9.42-4.02-15.04-4.02s-10.65,1.34-15.08,4.02c-4.44,2.68-7.93,6.51-10.48,11.5-2.55,4.99-3.82,10.96-3.82,17.92s1.27,12.89,3.82,17.88c2.55,4.99,6.04,8.82,10.48,11.48,4.44,2.66,9.47,3.99,15.08,3.99s10.63-1.33,15.04-3.99,7.89-6.49,10.43-11.48c2.55-4.99,3.82-10.95,3.82-17.88s-1.27-12.93-3.82-17.92c-2.55-4.99-6.02-8.83-10.43-11.5ZM757.86,217.78c-1.7,3.62-4.02,6.36-6.94,8.21-2.92,1.85-6.24,2.77-9.93,2.77s-7.06-.93-10-2.79c-2.94-1.86-5.26-4.6-6.96-8.21-1.7-3.61-2.55-8.03-2.55-13.27s.85-9.71,2.55-13.34c1.7-3.62,4.02-6.37,6.96-8.23,2.94-1.86,6.27-2.79,10-2.79s7.01.92,9.93,2.77c2.92,1.85,5.24,4.58,6.94,8.21,1.7,3.62,2.55,8.08,2.55,13.38s-.85,9.67-2.55,13.29Z"/>
      <path class="st2" d="M822.1,206.21c-1.86-1.41-3.89-2.56-6.09-3.45-2.2-.89-4.33-1.59-6.4-2.12l-6.33-1.66c-1.66-.44-3.4-1.03-5.22-1.77s-3.36-1.75-4.63-3.01c-1.27-1.27-1.9-2.93-1.9-5,0-1.83.53-3.47,1.59-4.91,1.06-1.44,2.56-2.57,4.5-3.38,1.94-.81,4.21-1.22,6.83-1.22,3.7,0,6.76.82,9.19,2.45,2.43,1.63,3.8,3.93,4.13,6.9h9.69c-.09-3.46-1.1-6.55-3.03-9.25-1.94-2.71-4.6-4.84-7.99-6.4-3.39-1.56-7.31-2.34-11.77-2.34s-8.29.78-11.77,2.34c-3.48,1.56-6.23,3.74-8.25,6.55-2.02,2.81-3.03,6.09-3.03,9.84,0,4.45,1.49,8.08,4.47,10.87,2.98,2.79,7.14,4.9,12.46,6.33l7.6,2.1c2.36.61,4.46,1.32,6.31,2.12,1.85.8,3.32,1.8,4.41,3.01,1.09,1.21,1.64,2.76,1.64,4.65,0,2.1-.63,3.94-1.88,5.52-1.25,1.59-2.95,2.81-5.09,3.67-2.14.86-4.59,1.29-7.36,1.29-2.47,0-4.77-.38-6.9-1.13-2.12-.76-3.85-1.91-5.17-3.45-1.32-1.54-2.09-3.49-2.29-5.85h-10c.2,3.96,1.32,7.37,3.34,10.24,2.02,2.87,4.82,5.07,8.4,6.61,3.58,1.54,7.8,2.31,12.66,2.31s9.44-.82,13.03-2.47c3.59-1.64,6.34-3.91,8.23-6.79,1.89-2.88,2.84-6.16,2.84-9.82,0-2.94-.58-5.45-1.72-7.53-1.15-2.08-2.66-3.83-4.52-5.24Z"/>
      <polygon class="st2" points="906.18 199.42 873.96 199.42 873.96 171.92 864.01 171.92 864.01 236.96 873.96 236.96 873.96 207.98 906.18 207.98 906.18 236.96 916.18 236.96 916.18 171.92 906.18 171.92 906.18 199.42"/>
      <path class="st2" d="M948.75,171.92l-23.14,65.05h10.78l5.82-17.16h25.55l6,17.16h10.78l-23.57-65.05h-12.22ZM964.86,211.51h-19.84l3.64-10.74c.9-2.79,1.94-6.21,3.12-10.24.91-3.12,1.92-6.73,3.01-10.82,1.13,4.03,2.15,7.59,3.06,10.67,1.18,3.99,2.26,7.45,3.25,10.39l3.76,10.74Z"/>
      <path class="st2" d="M1033.79,205.47c-2.07-1.29-4.19-1.99-6.37-2.07v-.65c2.01-.52,3.85-1.35,5.52-2.47,1.67-1.12,3-2.6,3.99-4.45.99-1.85,1.48-4.12,1.48-6.83,0-3.2-.74-6.09-2.23-8.67-1.48-2.58-3.74-4.62-6.77-6.13-3.03-1.51-6.85-2.27-11.48-2.27h-23.97v65.05h25.01c5.06,0,9.21-.77,12.44-2.31s5.62-3.64,7.18-6.29c1.56-2.65,2.34-5.62,2.34-8.91s-.68-6.19-2.03-8.54c-1.35-2.34-3.06-4.16-5.13-5.46ZM1003.93,180.43h13.32c3.87,0,6.74.9,8.6,2.68,1.86,1.79,2.79,4.02,2.79,6.7,0,2.07-.51,3.87-1.53,5.41-1.02,1.54-2.42,2.74-4.19,3.58-1.78.84-3.75,1.27-5.94,1.27h-13.05v-19.65ZM1028.03,225.7c-2.04,1.8-5.38,2.71-10.04,2.71h-14.06v-20.65h14.45c2.62,0,4.88.5,6.77,1.51s3.35,2.35,4.39,4.04c1.03,1.69,1.55,3.58,1.55,5.67,0,2.68-1.02,4.92-3.06,6.72Z"/>
      <polygon class="st2" points="1062.64 171.92 1052.69 171.92 1052.69 236.96 1092.11 236.96 1092.11 228.41 1062.64 228.41 1062.64 171.92"/>
      <path class="st2" d="M1121.41,171.92l-23.14,65.05h10.78l5.82-17.16h25.55l6,17.16h10.78l-23.57-65.05h-12.22ZM1137.52,211.51h-19.84l3.64-10.74c.9-2.79,1.94-6.21,3.12-10.24.91-3.12,1.92-6.73,3.01-10.82,1.13,4.03,2.14,7.59,3.05,10.67,1.18,3.99,2.26,7.45,3.25,10.39l3.76,10.74Z"/>
      <path class="st2" d="M1226.31,174.71c-3.35-1.86-7.52-2.79-12.53-2.79h-23.31v65.05h9.95v-22.79h13.27c5.04,0,9.23-.92,12.57-2.77,3.35-1.85,5.86-4.37,7.53-7.55,1.67-3.19,2.51-6.79,2.51-10.8s-.83-7.61-2.49-10.78c-1.66-3.17-4.16-5.69-7.51-7.55ZM1224.85,199.55c-.92,1.92-2.37,3.43-4.34,4.54-1.98,1.11-4.57,1.66-7.77,1.66h-12.31v-25.32h12.22c3.23,0,5.84.54,7.84,1.62,1.99,1.08,3.45,2.57,4.37,4.47.92,1.91,1.38,4.08,1.38,6.53s-.46,4.58-1.38,6.5Z"/>
      <path class="st2" d="M1289.98,175.06c-4.41-2.68-9.42-4.02-15.04-4.02s-10.65,1.34-15.08,4.02c-4.44,2.68-7.93,6.51-10.48,11.5-2.55,4.99-3.82,10.96-3.82,17.92s1.27,12.89,3.82,17.88c2.55,4.99,6.04,8.82,10.48,11.48,4.44,2.66,9.47,3.99,15.08,3.99s10.63-1.33,15.04-3.99,7.89-6.49,10.43-11.48,3.82-10.95,3.82-17.88-1.27-12.93-3.82-17.92-6.02-8.83-10.43-11.5ZM1291.82,217.78c-1.7,3.62-4.02,6.36-6.94,8.21-2.92,1.85-6.24,2.77-9.93,2.77s-7.06-.93-10-2.79c-2.94-1.86-5.26-4.6-6.96-8.21-1.7-3.61-2.55-8.03-2.55-13.27s.85-9.71,2.55-13.34c1.7-3.62,4.02-6.37,6.96-8.23,2.94-1.86,6.27-2.79,10-2.79s7.01.92,9.93,2.77c2.92,1.85,5.24,4.58,6.94,8.21,1.7,3.62,2.55,8.08,2.55,13.38s-.85,9.67-2.55,13.29Z"/>
      <path class="st2" d="M1352.17,209.9c3.35-1.66,5.86-3.99,7.53-7.01s2.51-6.53,2.51-10.54-.83-7.52-2.49-10.61c-1.66-3.08-4.16-5.49-7.51-7.22-3.35-1.73-7.52-2.6-12.53-2.6h-23.31v65.05h9.95v-24.58h13.27c.19,0,.37,0,.56-.01l13.19,24.59h11.31l-14.33-26.28c.64-.24,1.26-.5,1.85-.79ZM1326.32,180.43h12.22c3.23,0,5.83.49,7.81,1.46,1.98.98,3.43,2.35,4.37,4.12.93,1.78,1.4,3.89,1.4,6.33s-.47,4.48-1.4,6.2c-.93,1.72-2.38,3.03-4.34,3.95-1.96.92-4.55,1.38-7.75,1.38h-12.31v-23.44Z"/>
      <path class="st2" d="M1441.27,208.94c0,1.46.03,3.25.09,5.37.06,2.12.15,4.4.28,6.83.07,1.27.16,2.55.26,3.84-.6-1.31-1.2-2.56-1.81-3.75-1.13-2.23-2.21-4.23-3.23-6-1.02-1.78-1.94-3.3-2.75-4.58l-24.49-38.72h-11.48v65.05h10.08v-34.71c0-1.28-.04-2.99-.11-5.13-.07-2.14-.18-4.6-.33-7.38-.1-1.83-.19-3.77-.29-5.79,1.22,2.25,2.3,4.27,3.24,6,1.35,2.52,2.59,4.74,3.71,6.66,1.12,1.92,2.26,3.83,3.43,5.72l21.96,34.62h11.52v-65.05h-10.08v37.02Z"/>
      <path class="st2" d="M1507.91,175.06c-4.41-2.68-9.42-4.02-15.04-4.02s-10.65,1.34-15.08,4.02c-4.44,2.68-7.93,6.51-10.48,11.5-2.55,4.99-3.82,10.96-3.82,17.92s1.27,12.89,3.82,17.88c2.55,4.99,6.04,8.82,10.48,11.48,4.44,2.66,9.47,3.99,15.08,3.99s10.63-1.33,15.04-3.99,7.89-6.49,10.43-11.48,3.82-10.95,3.82-17.88-1.27-12.93-3.82-17.92-6.02-8.83-10.43-11.5ZM1509.74,217.78c-1.7,3.62-4.02,6.36-6.94,8.21-2.92,1.85-6.24,2.77-9.93,2.77s-7.06-.93-10-2.79c-2.94-1.86-5.26-4.6-6.96-8.21-1.7-3.61-2.55-8.03-2.55-13.27s.85-9.71,2.55-13.34c1.7-3.62,4.02-6.37,6.96-8.23,2.94-1.86,6.27-2.79,10-2.79s7.01.92,9.93,2.77c2.92,1.85,5.24,4.58,6.94,8.21,1.7,3.62,2.55,8.08,2.55,13.38s-.85,9.67-2.55,13.29Z"/>
      <path class="st2" d="M1573.98,206.21c-1.86-1.41-3.89-2.56-6.09-3.45s-4.33-1.59-6.4-2.12l-6.33-1.66c-1.66-.44-3.4-1.03-5.22-1.77-1.82-.74-3.36-1.75-4.63-3.01-1.27-1.27-1.9-2.93-1.9-5,0-1.83.53-3.47,1.59-4.91,1.06-1.44,2.56-2.57,4.5-3.38,1.94-.81,4.21-1.22,6.83-1.22,3.7,0,6.76.82,9.19,2.45s3.81,3.93,4.13,6.9h9.69c-.09-3.46-1.1-6.55-3.03-9.25-1.94-2.71-4.6-4.84-7.99-6.4s-7.31-2.34-11.76-2.34-8.29.78-11.77,2.34-6.23,3.74-8.25,6.55-3.03,6.09-3.03,9.84c0,4.45,1.49,8.08,4.47,10.87s7.14,4.9,12.46,6.33l7.6,2.1c2.36.61,4.46,1.32,6.31,2.12s3.32,1.8,4.41,3.01c1.09,1.21,1.64,2.76,1.64,4.65,0,2.1-.63,3.94-1.88,5.52-1.25,1.59-2.95,2.81-5.09,3.67-2.14.86-4.59,1.29-7.36,1.29-2.47,0-4.77-.38-6.9-1.13-2.12-.76-3.85-1.91-5.17-3.45-1.33-1.54-2.09-3.49-2.29-5.85h-10c.2,3.96,1.32,7.37,3.34,10.24s4.82,5.07,8.4,6.61c3.58,1.54,7.8,2.31,12.66,2.31s9.44-.82,13.03-2.47c3.59-1.64,6.34-3.91,8.23-6.79,1.89-2.88,2.84-6.16,2.84-9.82,0-2.94-.58-5.45-1.72-7.53s-2.66-3.83-4.52-5.24Z"/>
      <path class="st2" d="M1634.21,175.06c-4.41-2.68-9.42-4.02-15.04-4.02s-10.65,1.34-15.08,4.02c-4.44,2.68-7.93,6.51-10.48,11.5-2.55,4.99-3.82,10.96-3.82,17.92s1.27,12.89,3.82,17.88c2.55,4.99,6.04,8.82,10.48,11.48,4.44,2.66,9.47,3.99,15.08,3.99s10.63-1.33,15.04-3.99,7.89-6.49,10.43-11.48,3.82-10.95,3.82-17.88-1.27-12.93-3.82-17.92-6.02-8.83-10.43-11.5ZM1636.04,217.78c-1.7,3.62-4.02,6.36-6.94,8.21-2.92,1.85-6.24,2.77-9.93,2.77s-7.06-.93-10-2.79c-2.94-1.86-5.26-4.6-6.96-8.21-1.7-3.61-2.55-8.03-2.55-13.27s.85-9.71,2.55-13.34c1.7-3.62,4.02-6.37,6.96-8.23,2.94-1.86,6.27-2.79,10-2.79s7.01.92,9.93,2.77c2.92,1.85,5.24,4.58,6.94,8.21,1.7,3.62,2.55,8.08,2.55,13.38s-.85,9.67-2.55,13.29Z"/>
      <polygon class="st2" points="1654.61 180.47 1674.91 180.47 1674.91 236.96 1684.91 236.96 1684.91 180.47 1705.12 180.47 1705.12 171.92 1654.61 171.92 1654.61 180.47"/>
      <path class="st2" d="M1752.05,209.9c3.35-1.66,5.86-3.99,7.53-7.01s2.51-6.53,2.51-10.54-.83-7.52-2.49-10.61c-1.66-3.08-4.16-5.49-7.51-7.22-3.35-1.73-7.52-2.6-12.53-2.6h-23.31v65.05h9.95v-24.58h13.27c.19,0,.37,0,.56-.01l13.19,24.59h11.31l-14.33-26.28c.64-.24,1.26-.5,1.85-.79ZM1726.21,180.43h12.22c3.23,0,5.83.49,7.81,1.46,1.98.98,3.43,2.35,4.37,4.12.93,1.78,1.4,3.89,1.4,6.33s-.47,4.48-1.4,6.2c-.93,1.72-2.38,3.03-4.34,3.95-1.96.92-4.55,1.38-7.75,1.38h-12.31v-23.44Z"/>
      <path class="st2" d="M1816.34,175.06c-4.41-2.68-9.42-4.02-15.04-4.02s-10.65,1.34-15.08,4.02c-4.44,2.68-7.93,6.51-10.48,11.5-2.55,4.99-3.82,10.96-3.82,17.92s1.27,12.89,3.82,17.88c2.55,4.99,6.04,8.82,10.48,11.48,4.44,2.66,9.47,3.99,15.08,3.99s10.63-1.33,15.04-3.99,7.89-6.49,10.43-11.48,3.82-10.95,3.82-17.88-1.27-12.93-3.82-17.92-6.02-8.83-10.43-11.5ZM1818.17,217.78c-1.7,3.62-4.02,6.36-6.94,8.21-2.92,1.85-6.24,2.77-9.93,2.77s-7.06-.93-10-2.79c-2.94-1.86-5.26-4.6-6.96-8.21-1.7-3.61-2.55-8.03-2.55-13.27s.85-9.71,2.55-13.34c1.7-3.62,4.02-6.37,6.96-8.23,2.94-1.86,6.27-2.79,10-2.79s7.01.92,9.93,2.77c2.92,1.85,5.24,4.58,6.94,8.21,1.7,3.62,2.55,8.08,2.55,13.38s-.85,9.67-2.55,13.29Z"/>
      <path class="st2" d="M1886.93,211.45c-1.15-2.08-2.66-3.83-4.52-5.24-1.86-1.41-3.89-2.56-6.09-3.45s-4.33-1.59-6.4-2.12l-6.33-1.66c-1.66-.44-3.4-1.03-5.22-1.77-1.82-.74-3.36-1.75-4.63-3.01-1.27-1.27-1.9-2.93-1.9-5,0-1.83.53-3.47,1.59-4.91,1.06-1.44,2.56-2.57,4.5-3.38,1.94-.81,4.21-1.22,6.83-1.22,3.7,0,6.76.82,9.19,2.45s3.81,3.93,4.13,6.9h9.69c-.09-3.46-1.1-6.55-3.03-9.25-1.94-2.71-4.6-4.84-7.99-6.4s-7.31-2.34-11.76-2.34-8.29.78-11.77,2.34-6.23,3.74-8.25,6.55-3.03,6.09-3.03,9.84c0,4.45,1.49,8.08,4.47,10.87s7.14,4.9,12.46,6.33l7.6,2.1c2.36.61,4.46,1.32,6.31,2.12s3.32,1.8,4.41,3.01c1.09,1.21,1.64,2.76,1.64,4.65,0,2.1-.63,3.94-1.88,5.52-1.25,1.59-2.95,2.81-5.09,3.67-2.14.86-4.59,1.29-7.36,1.29-2.47,0-4.77-.38-6.9-1.13-2.12-.76-3.85-1.91-5.17-3.45-1.33-1.54-2.09-3.49-2.29-5.85h-10c.2,3.96,1.32,7.37,3.34,10.24s4.82,5.07,8.4,6.61c3.58,1.54,7.8,2.31,12.66,2.31s9.44-.82,13.03-2.47c3.59-1.64,6.34-3.91,8.23-6.79,1.89-2.88,2.84-6.16,2.84-9.82,0-2.94-.58-5.45-1.72-7.53Z"/>
    </g>
  </g>
  <g id="Capa_3">
    <rect class="st0" x=".44" y=".08" width="1937.12" height="177.48"/>
    <rect class="st0" x=".07" y="222.51" width="1937.12" height="177.48"/>
    <g>
      <polygon class="st3" points="38.28 166.99 20.64 166.99 20.64 232.04 64.56 232.04 64.56 217.8 38.28 217.8 38.28 166.99"/>
      <path class="st3" d="M115.16,169.93c-4.77-2.55-10.11-3.82-16.02-3.82s-11.26,1.27-16.04,3.82c-4.79,2.55-8.58,6.31-11.37,11.29-2.79,4.98-4.19,11.09-4.19,18.34s1.4,13.26,4.19,18.23c2.79,4.96,6.58,8.72,11.37,11.29,4.79,2.56,10.13,3.84,16.04,3.84s11.25-1.27,16.02-3.82c4.77-2.55,8.56-6.3,11.37-11.26,2.81-4.96,4.21-11.05,4.21-18.27s-1.4-13.36-4.21-18.34c-2.81-4.98-6.6-8.74-11.37-11.29ZM111.05,209.38c-1.02,2.68-2.53,4.71-4.52,6.09-1.99,1.38-4.46,2.07-7.4,2.07s-5.36-.69-7.36-2.07c-1.99-1.38-3.51-3.41-4.54-6.09-1.03-2.68-1.55-5.95-1.55-9.82s.52-7.2,1.55-9.89c1.03-2.69,2.55-4.73,4.54-6.11,1.99-1.38,4.45-2.07,7.36-2.07s5.41.69,7.4,2.07c1.99,1.38,3.5,3.42,4.52,6.11,1.02,2.69,1.53,5.99,1.53,9.89s-.51,7.14-1.53,9.82Z"/>
      <path class="st3" d="M213.67,217.83c2.81-4.96,4.21-11.05,4.21-18.27s-1.4-13.36-4.21-18.34c-2.81-4.98-6.6-8.74-11.37-11.29-4.77-2.55-10.11-3.82-16.02-3.82s-11.26,1.27-16.04,3.82c-4.79,2.55-8.58,6.31-11.37,11.29-2.79,4.98-4.19,11.09-4.19,18.34s1.4,13.26,4.19,18.23c2.79,4.96,6.58,8.72,11.37,11.29,4.79,2.56,10.13,3.84,16.04,3.84,4.26,0,8.23-.67,11.9-2l5.12,5.93h15.63l-10.28-12.41c1.92-1.89,3.6-4.09,5.02-6.6ZM178.92,215.47c-1.99-1.38-3.51-3.41-4.54-6.09-1.03-2.68-1.55-5.95-1.55-9.82s.52-7.2,1.55-9.89c1.03-2.69,2.55-4.73,4.54-6.11,1.99-1.38,4.45-2.07,7.36-2.07s5.41.69,7.4,2.07c1.99,1.38,3.5,3.42,4.52,6.11,1.02,2.69,1.53,5.99,1.53,9.89s-.51,7.14-1.53,9.82c-.26.67-.54,1.3-.86,1.89l-2.68-3.33h-13.71l7.22,9.49c-.61.07-1.24.11-1.9.11-2.91,0-5.36-.69-7.36-2.07Z"/>
      <path class="st3" d="M264.68,207.15c0,2.04-.45,3.83-1.35,5.39-.9,1.56-2.14,2.78-3.71,3.67-1.57.89-3.38,1.33-5.41,1.33s-3.79-.44-5.35-1.33c-1.56-.89-2.79-2.11-3.69-3.67-.9-1.56-1.35-3.35-1.35-5.39v-40.16h-17.64v41.65c0,4.95,1.17,9.23,3.51,12.86,2.34,3.62,5.62,6.42,9.82,8.38,4.21,1.96,9.1,2.95,14.69,2.95s10.49-.98,14.71-2.95c4.22-1.96,7.51-4.76,9.87-8.38,2.36-3.62,3.54-7.91,3.54-12.86v-41.65h-17.64v40.16Z"/>
      <polygon class="st3" points="290.7 232.04 337.41 232.04 337.41 217.8 308.33 217.8 308.33 206.1 335.14 206.1 335.14 192.22 308.33 192.22 308.33 181.22 337.58 181.22 337.58 166.99 290.7 166.99 290.7 232.04"/>
      <polygon class="st3" points="404.33 191.7 380.93 191.7 380.93 166.99 363.3 166.99 363.3 232.04 380.93 232.04 380.93 205.93 404.33 205.93 404.33 232.04 421.97 232.04 421.97 166.99 404.33 166.99 404.33 191.7"/>
      <path class="st3" d="M449.25,166.99l-21.09,65.05h19.73l3.56-12.49h20.03l3.74,12.49h19.99l-21.87-65.05h-24.1ZM467.55,206.37h-12.32c1.52-5.34,2.89-10.87,4.11-16.61.6-2.81,1.18-5.59,1.77-8.38.65,2.79,1.31,5.58,1.98,8.38,1.39,5.74,2.88,11.27,4.46,16.61Z"/>
      <path class="st3" d="M537.77,212.08c-.6,1.13-1.38,2.11-2.34,2.92s-2.08,1.44-3.36,1.88c-1.28.44-2.74.65-4.37.65-2.88,0-5.33-.67-7.36-2.01-2.02-1.34-3.57-3.35-4.65-6.02-1.08-2.68-1.62-6-1.62-9.95s.52-7.02,1.57-9.71c1.05-2.69,2.6-4.76,4.65-6.2,2.05-1.44,4.55-2.16,7.49-2.16,1.63,0,3.09.22,4.39.66,1.29.44,2.41,1.06,3.34,1.88.93.82,1.68,1.79,2.25,2.92.57,1.14.94,2.4,1.11,3.8h17.9c-.41-3.93-1.41-7.42-3.01-10.48s-3.7-5.63-6.29-7.73c-2.59-2.09-5.6-3.69-9.02-4.78-3.42-1.09-7.15-1.64-11.2-1.64-5.82,0-11.1,1.27-15.85,3.82-4.74,2.55-8.51,6.31-11.31,11.29-2.79,4.98-4.19,11.09-4.19,18.34s1.38,13.26,4.13,18.23c2.75,4.96,6.49,8.72,11.22,11.29,4.73,2.56,10.06,3.84,16,3.84,4.77,0,8.96-.75,12.55-2.25,3.59-1.5,6.62-3.47,9.08-5.92,2.46-2.45,4.35-5.11,5.67-7.99,1.32-2.88,2.09-5.7,2.29-8.47h-17.9c-.2,1.4-.6,2.66-1.2,3.8Z"/>
      <polygon class="st3" points="563.89 232.04 610.61 232.04 610.61 217.8 581.53 217.8 581.53 206.1 608.34 206.1 608.34 192.22 581.53 192.22 581.53 181.22 610.78 181.22 610.78 166.99 563.89 166.99 563.89 232.04"/>
      <path class="st3" d="M662.12,187.33c-.5,1.75-1.06,4.06-1.68,6.94-.63,2.88-1.25,5.97-1.88,9.28-.46,2.44-.88,4.79-1.28,7.08-.41-2.3-.83-4.64-1.29-7.08-.63-3.3-1.26-6.4-1.9-9.28-.64-2.88-1.21-5.2-1.7-6.94l-5.85-20.34h-27.85v65.05h17.81v-25.15c0-1.48-.04-3.46-.11-5.92-.07-2.46-.15-5.16-.24-8.1-.09-2.94-.17-5.89-.24-8.86-.02-.66-.03-1.3-.04-1.93.17.78.34,1.55.52,2.35.68,2.98,1.39,5.89,2.12,8.73.73,2.84,1.42,5.44,2.07,7.81.65,2.37,1.21,4.34,1.68,5.92l7.68,25.15h14.67l7.55-25.15c.47-1.57,1.02-3.54,1.66-5.92.64-2.37,1.31-4.98,2.01-7.81.7-2.84,1.38-5.75,2.05-8.73.26-1.16.5-2.29.74-3.41-.02.97-.04,1.97-.06,3-.07,2.97-.15,5.92-.24,8.86-.09,2.94-.17,5.64-.24,8.1-.07,2.46-.11,4.43-.11,5.92v25.15h17.81v-65.05h-27.9l-5.76,20.34Z"/>
      <path class="st3" d="M750.65,169.93c-4.77-2.55-10.11-3.82-16.02-3.82s-11.26,1.27-16.04,3.82c-4.79,2.55-8.58,6.31-11.37,11.29-2.79,4.98-4.19,11.09-4.19,18.34s1.4,13.26,4.19,18.23c2.79,4.96,6.58,8.72,11.37,11.29,4.79,2.56,10.13,3.84,16.04,3.84s11.25-1.27,16.02-3.82c4.77-2.55,8.56-6.3,11.37-11.26,2.81-4.96,4.21-11.05,4.21-18.27s-1.4-13.36-4.21-18.34c-2.81-4.98-6.6-8.74-11.37-11.29ZM746.55,209.38c-1.02,2.68-2.53,4.71-4.52,6.09-1.99,1.38-4.46,2.07-7.4,2.07s-5.36-.69-7.36-2.07c-1.99-1.38-3.51-3.41-4.54-6.09-1.03-2.68-1.55-5.95-1.55-9.82s.52-7.2,1.55-9.89c1.03-2.69,2.55-4.73,4.54-6.11,1.99-1.38,4.45-2.07,7.36-2.07s5.41.69,7.4,2.07c1.99,1.38,3.5,3.42,4.52,6.11,1.02,2.69,1.53,5.99,1.53,9.89s-.51,7.14-1.53,9.82Z"/>
      <path class="st3" d="M821.53,200.32c-1.64-1.67-3.75-3.14-6.33-4.39-2.58-1.25-5.65-2.25-9.23-3.01l-5.33-1.14c-2.04-.44-3.7-.94-5-1.51-1.3-.57-2.24-1.24-2.84-2.01-.6-.77-.9-1.67-.9-2.68,0-.96.28-1.82.83-2.58.55-.76,1.41-1.35,2.58-1.77s2.65-.63,4.45-.63c2.85,0,4.98.59,6.4,1.77,1.41,1.18,2.19,2.83,2.34,4.96h16.94c-.03-4.25-1.08-7.97-3.17-11.15-2.08-3.19-5.04-5.66-8.86-7.42-3.83-1.76-8.38-2.64-13.64-2.64s-9.7.87-13.64,2.6c-3.94,1.73-7.04,4.15-9.28,7.25-2.24,3.1-3.36,6.72-3.36,10.85,0,5.09,1.65,9.12,4.96,12.07,3.3,2.95,7.82,5.04,13.56,6.26l6.55,1.4c2.42.5,4.34,1.05,5.76,1.66,1.43.61,2.45,1.29,3.08,2.03.63.74.94,1.61.94,2.6,0,1.08-.33,2.03-.98,2.86-.65.83-1.62,1.48-2.9,1.94-1.28.47-2.87.7-4.76.7-2.27,0-4.21-.35-5.83-1.05-1.62-.7-2.87-1.73-3.75-3.1-.89-1.37-1.39-3.04-1.51-5.02h-16.76c.03,5.44,1.21,9.91,3.54,13.4,2.33,3.49,5.59,6.08,9.8,7.75,4.21,1.67,9.13,2.51,14.78,2.51s10.22-.77,14.14-2.31c3.93-1.54,6.95-3.8,9.06-6.79,2.11-2.98,3.17-6.61,3.17-10.89,0-2.47-.39-4.76-1.16-6.85-.77-2.1-1.98-3.98-3.62-5.65Z"/>
      <polygon class="st3" points="891.88 191.7 868.48 191.7 868.48 166.99 850.84 166.99 850.84 232.04 868.48 232.04 868.48 205.93 891.88 205.93 891.88 232.04 909.52 232.04 909.52 166.99 891.88 166.99 891.88 191.7"/>
      <path class="st3" d="M936.8,166.99l-21.09,65.05h19.73l3.56-12.49h20.03l3.74,12.49h19.99l-21.87-65.05h-24.1ZM955.1,206.37h-12.32c1.52-5.34,2.89-10.87,4.11-16.61.6-2.81,1.18-5.59,1.77-8.38.65,2.79,1.31,5.58,1.98,8.38,1.39,5.74,2.88,11.27,4.46,16.61Z"/>
      <path class="st3" d="M1034.92,200.23c-2.29-1.29-4.82-1.99-7.62-2.07v-.7c2.53-.49,4.74-1.4,6.61-2.73,1.88-1.32,3.34-2.98,4.39-4.96,1.05-1.98,1.57-4.16,1.57-6.55,0-3.29-.86-6.15-2.58-8.58-1.72-2.43-4.26-4.31-7.64-5.65-3.38-1.34-7.54-2.01-12.49-2.01h-28.2v65.05h30.65c4.71,0,8.78-.79,12.18-2.38,3.4-1.59,6.02-3.77,7.86-6.55,1.83-2.78,2.75-5.94,2.75-9.5,0-3.06-.68-5.73-2.03-8.01-1.35-2.28-3.17-4.07-5.46-5.37ZM1006.61,180.87h7.51c2.18,0,3.99.54,5.43,1.62s2.16,2.6,2.16,4.58c0,1.34-.33,2.47-1,3.38-.67.92-1.59,1.62-2.77,2.1s-2.54.72-4.08.72h-7.25v-12.4ZM1021.56,216.28c-1.5,1.13-3.72,1.7-6.66,1.7h-8.29v-13.8h8.56c1.77,0,3.31.28,4.61.83,1.29.55,2.29,1.36,2.99,2.42s1.05,2.36,1.05,3.91c0,2.15-.75,3.8-2.25,4.93Z"/>
      <polygon class="st3" points="1066.33 166.99 1048.69 166.99 1048.69 232.04 1092.61 232.04 1092.61 217.8 1066.33 217.8 1066.33 166.99"/>
      <path class="st3" d="M1118.15,166.99l-21.09,65.05h19.73l3.56-12.49h20.03l3.74,12.49h19.99l-21.87-65.05h-24.1ZM1136.44,206.37h-12.33c1.52-5.34,2.9-10.87,4.11-16.61.6-2.81,1.18-5.59,1.77-8.39.65,2.79,1.31,5.58,1.98,8.39,1.39,5.74,2.88,11.27,4.46,16.61Z"/>
      <path class="st3" d="M1228.83,169.85c-3.62-1.91-7.85-2.86-12.68-2.86h-28.03v65.05h17.64v-19.3h9.78c4.95,0,9.28-.92,13.01-2.77,3.72-1.85,6.62-4.47,8.69-7.86,2.07-3.39,3.1-7.41,3.1-12.07s-1.01-8.67-3.03-12.14c-2.02-3.46-4.85-6.15-8.47-8.05ZM1220.74,194.8c-.79,1.34-1.92,2.38-3.41,3.12s-3.27,1.11-5.37,1.11h-6.2v-17.9h6.2c2.09,0,3.88.35,5.37,1.05,1.48.7,2.62,1.71,3.41,3.03s1.18,2.93,1.18,4.82-.39,3.42-1.18,4.76Z"/>
      <path class="st3" d="M1293.29,169.93c-4.77-2.55-10.11-3.82-16.02-3.82s-11.26,1.27-16.04,3.82c-4.79,2.55-8.58,6.31-11.37,11.29s-4.19,11.09-4.19,18.34,1.4,13.26,4.19,18.23c2.79,4.96,6.58,8.72,11.37,11.29,4.79,2.56,10.13,3.84,16.04,3.84s11.25-1.27,16.02-3.82c4.77-2.55,8.56-6.3,11.37-11.26,2.81-4.96,4.21-11.05,4.21-18.27s-1.4-13.36-4.21-18.34c-2.81-4.98-6.6-8.74-11.37-11.29ZM1289.19,209.38c-1.02,2.68-2.53,4.71-4.52,6.09-1.99,1.38-4.46,2.07-7.4,2.07s-5.36-.69-7.36-2.07c-1.99-1.38-3.51-3.41-4.54-6.09-1.03-2.68-1.55-5.95-1.55-9.82s.52-7.2,1.55-9.89c1.03-2.69,2.55-4.73,4.54-6.11,1.99-1.38,4.45-2.07,7.36-2.07s5.41.69,7.4,2.07c1.99,1.38,3.5,3.42,4.52,6.11,1.02,2.69,1.53,5.99,1.53,9.89s-.51,7.14-1.53,9.82Z"/>
      <path class="st3" d="M1365.24,200.87c2.07-3.2,3.1-7.13,3.1-11.79s-1.01-8.55-3.03-11.85c-2.02-3.3-4.85-5.83-8.47-7.6-3.62-1.76-7.85-2.64-12.68-2.64h-28.03v65.05h17.64v-21.48h6.12l11.43,21.48h19.21l-13.26-24.26c3.38-1.62,6.05-3.92,7.98-6.91ZM1333.76,181.13h6.2c2.09,0,3.88.28,5.37.83,1.48.55,2.62,1.41,3.41,2.58s1.18,2.68,1.18,4.54-.39,3.36-1.18,4.5c-.79,1.14-1.92,1.96-3.41,2.49-1.48.52-3.27.79-5.37.79h-6.2v-15.72Z"/>
      <path class="st3" d="M1435.92,190.82c0,2.07.09,4.61.26,7.62.17,3.01.37,6.07.59,9.17.06.92.12,1.79.18,2.64-.49-1.34-.97-2.61-1.45-3.77-1.09-2.66-2.22-5.1-3.38-7.31-1.16-2.21-2.42-4.42-3.75-6.64l-15.5-25.54h-19.21v65.05h18.16v-23.75c0-1.77-.07-3.96-.2-6.55-.13-2.59-.31-5.4-.52-8.43-.1-1.33-.2-2.68-.3-4.02.62,1.41,1.2,2.75,1.74,3.98,1.15,2.62,2.34,5.1,3.58,7.44,1.24,2.34,2.67,4.87,4.3,7.57l14.45,23.75h19.21v-65.05h-18.16v23.84Z"/>
      <path class="st3" d="M1508.95,169.93c-4.77-2.55-10.11-3.82-16.02-3.82s-11.26,1.27-16.04,3.82c-4.79,2.55-8.58,6.31-11.37,11.29s-4.19,11.09-4.19,18.34,1.4,13.26,4.19,18.23c2.79,4.96,6.58,8.72,11.37,11.29,4.79,2.56,10.13,3.84,16.04,3.84s11.25-1.27,16.02-3.82c4.77-2.55,8.56-6.3,11.37-11.26,2.81-4.96,4.21-11.05,4.21-18.27s-1.4-13.36-4.21-18.34c-2.81-4.98-6.6-8.74-11.37-11.29ZM1504.85,209.38c-1.02,2.68-2.53,4.71-4.52,6.09-1.99,1.38-4.46,2.07-7.4,2.07s-5.36-.69-7.36-2.07c-1.99-1.38-3.51-3.41-4.54-6.09-1.03-2.68-1.55-5.95-1.55-9.82s.52-7.2,1.55-9.89c1.03-2.69,2.55-4.73,4.54-6.11,1.99-1.38,4.45-2.07,7.36-2.07s5.41.69,7.4,2.07c1.99,1.38,3.5,3.42,4.52,6.11,1.02,2.69,1.53,5.99,1.53,9.89s-.51,7.14-1.53,9.82Z"/>
      <path class="st3" d="M1579.83,200.32c-1.64-1.67-3.75-3.14-6.33-4.39-2.58-1.25-5.65-2.25-9.23-3.01l-5.33-1.14c-2.04-.44-3.7-.94-5-1.51s-2.24-1.24-2.84-2.01c-.6-.77-.9-1.67-.9-2.68,0-.96.28-1.82.83-2.58.55-.76,1.41-1.35,2.58-1.77s2.65-.63,4.45-.63c2.85,0,4.98.59,6.4,1.77,1.41,1.18,2.19,2.83,2.34,4.96h16.94c-.03-4.25-1.08-7.97-3.17-11.15-2.08-3.19-5.04-5.66-8.86-7.42-3.83-1.76-8.38-2.64-13.64-2.64s-9.7.87-13.64,2.6c-3.94,1.73-7.04,4.15-9.28,7.25-2.24,3.1-3.36,6.72-3.36,10.85,0,5.09,1.65,9.12,4.95,12.07s7.82,5.04,13.56,6.26l6.55,1.4c2.42.5,4.34,1.05,5.76,1.66s2.45,1.29,3.08,2.03c.62.74.94,1.61.94,2.6,0,1.08-.33,2.03-.98,2.86-.66.83-1.62,1.48-2.9,1.94-1.28.47-2.87.7-4.76.7-2.27,0-4.21-.35-5.83-1.05-1.62-.7-2.87-1.73-3.75-3.1-.89-1.37-1.39-3.04-1.51-5.02h-16.76c.03,5.44,1.21,9.91,3.54,13.4,2.33,3.49,5.59,6.08,9.8,7.75,4.21,1.67,9.13,2.51,14.78,2.51s10.21-.77,14.14-2.31c3.93-1.54,6.95-3.8,9.06-6.79,2.11-2.98,3.17-6.61,3.17-10.89,0-2.47-.39-4.76-1.16-6.85-.77-2.1-1.98-3.98-3.62-5.65Z"/>
      <path class="st3" d="M1637.82,169.93c-4.77-2.55-10.11-3.82-16.02-3.82s-11.26,1.27-16.04,3.82c-4.79,2.55-8.58,6.31-11.37,11.29s-4.19,11.09-4.19,18.34,1.4,13.26,4.19,18.23c2.79,4.96,6.58,8.72,11.37,11.29,4.79,2.56,10.13,3.84,16.04,3.84s11.25-1.27,16.02-3.82c4.77-2.55,8.56-6.3,11.37-11.26,2.81-4.96,4.21-11.05,4.21-18.27s-1.4-13.36-4.21-18.34c-2.81-4.98-6.6-8.74-11.37-11.29ZM1633.72,209.38c-1.02,2.68-2.53,4.71-4.52,6.09-1.99,1.38-4.46,2.07-7.4,2.07s-5.36-.69-7.36-2.07c-1.99-1.38-3.51-3.41-4.54-6.09-1.03-2.68-1.55-5.95-1.55-9.82s.52-7.2,1.55-9.89c1.03-2.69,2.55-4.73,4.54-6.11,1.99-1.38,4.45-2.07,7.36-2.07s5.41.69,7.4,2.07c1.99,1.38,3.5,3.42,4.52,6.11,1.02,2.69,1.53,5.99,1.53,9.89s-.51,7.14-1.53,9.82Z"/>
      <polygon class="st3" points="1655.9 181.22 1675.32 181.22 1675.32 232.04 1692.96 232.04 1692.96 181.22 1712.39 181.22 1712.39 166.99 1655.9 166.99 1655.9 181.22"/>
      <path class="st3" d="M1768.14,200.87c2.07-3.2,3.1-7.13,3.1-11.79s-1.01-8.55-3.03-11.85c-2.02-3.3-4.85-5.83-8.47-7.6-3.62-1.76-7.85-2.64-12.68-2.64h-28.03v65.05h17.64v-21.48h6.12l11.43,21.48h19.21l-13.26-24.26c3.38-1.62,6.05-3.92,7.98-6.91ZM1736.66,181.13h6.2c2.09,0,3.88.28,5.37.83,1.48.55,2.62,1.41,3.41,2.58s1.18,2.68,1.18,4.54-.39,3.36-1.18,4.5c-.79,1.14-1.92,1.96-3.41,2.49-1.48.52-3.27.79-5.37.79h-6.2v-15.72Z"/>
      <path class="st3" d="M1825.24,169.93c-4.77-2.55-10.11-3.82-16.02-3.82s-11.26,1.27-16.04,3.82c-4.79,2.55-8.58,6.31-11.37,11.29s-4.19,11.09-4.19,18.34,1.4,13.26,4.19,18.23c2.79,4.96,6.58,8.72,11.37,11.29,4.79,2.56,10.13,3.84,16.04,3.84s11.25-1.27,16.02-3.82c4.77-2.55,8.56-6.3,11.37-11.26,2.81-4.96,4.21-11.05,4.21-18.27s-1.4-13.36-4.21-18.34c-2.81-4.98-6.6-8.74-11.37-11.29ZM1821.13,209.38c-1.02,2.68-2.53,4.71-4.52,6.09-1.99,1.38-4.46,2.07-7.4,2.07s-5.36-.69-7.36-2.07c-1.99-1.38-3.51-3.41-4.54-6.09-1.03-2.68-1.55-5.95-1.55-9.82s.52-7.2,1.55-9.89c1.03-2.69,2.55-4.73,4.54-6.11,1.99-1.38,4.45-2.07,7.36-2.07s5.41.69,7.4,2.07c1.99,1.38,3.5,3.42,4.52,6.11,1.02,2.69,1.53,5.99,1.53,9.89s-.51,7.14-1.53,9.82Z"/>
      <path class="st3" d="M1899.74,205.97c-.77-2.1-1.98-3.98-3.62-5.65-1.64-1.67-3.75-3.14-6.33-4.39-2.58-1.25-5.65-2.25-9.23-3.01l-5.33-1.14c-2.04-.44-3.7-.94-5-1.51s-2.24-1.24-2.84-2.01c-.6-.77-.9-1.67-.9-2.68,0-.96.28-1.82.83-2.58.55-.76,1.41-1.35,2.58-1.77s2.65-.63,4.45-.63c2.85,0,4.98.59,6.4,1.77,1.41,1.18,2.19,2.83,2.34,4.96h16.94c-.03-4.25-1.08-7.97-3.17-11.15-2.08-3.19-5.04-5.66-8.86-7.42-3.83-1.76-8.38-2.64-13.64-2.64s-9.7.87-13.64,2.6c-3.94,1.73-7.04,4.15-9.28,7.25-2.24,3.1-3.36,6.72-3.36,10.85,0,5.09,1.65,9.12,4.95,12.07s7.82,5.04,13.56,6.26l6.55,1.4c2.42.5,4.34,1.05,5.76,1.66s2.45,1.29,3.08,2.03c.62.74.94,1.61.94,2.6,0,1.08-.33,2.03-.98,2.86-.66.83-1.62,1.48-2.9,1.94-1.28.47-2.87.7-4.76.7-2.27,0-4.21-.35-5.83-1.05-1.62-.7-2.87-1.73-3.75-3.1-.89-1.37-1.39-3.04-1.51-5.02h-16.76c.03,5.44,1.21,9.91,3.54,13.4,2.33,3.49,5.59,6.08,9.8,7.75,4.21,1.67,9.13,2.51,14.78,2.51s10.21-.77,14.14-2.31c3.93-1.54,6.95-3.8,9.06-6.79,2.11-2.98,3.17-6.61,3.17-10.89,0-2.47-.39-4.76-1.16-6.85Z"/>
    </g>
    <g>
      <path d="M-12.38-146.31v-65.05H5.26v50.82h26.28v14.23H-12.38Z"/>
      <path d="M66.12-145.44c-5.91,0-11.26-1.28-16.04-3.84-4.79-2.56-8.58-6.32-11.37-11.29-2.79-4.96-4.19-11.04-4.19-18.23s1.4-13.36,4.19-18.34c2.79-4.98,6.58-8.74,11.37-11.29,4.79-2.55,10.13-3.82,16.04-3.82s11.25,1.27,16.02,3.82c4.77,2.55,8.56,6.31,11.37,11.29,2.81,4.98,4.21,11.09,4.21,18.34s-1.4,13.31-4.21,18.27c-2.81,4.96-6.6,8.72-11.37,11.26-4.77,2.55-10.11,3.82-16.02,3.82ZM66.12-160.8c2.94,0,5.41-.69,7.4-2.07,1.99-1.38,3.5-3.41,4.52-6.09,1.02-2.68,1.53-5.95,1.53-9.82s-.51-7.2-1.53-9.89c-1.02-2.69-2.53-4.73-4.52-6.11-1.99-1.38-4.46-2.07-7.4-2.07s-5.36.69-7.36,2.07c-1.99,1.38-3.51,3.42-4.54,6.11-1.03,2.69-1.55,5.99-1.55,9.89s.52,7.14,1.55,9.82c1.03,2.68,2.55,4.71,4.54,6.09,1.99,1.38,4.45,2.07,7.36,2.07Z"/>
      <path d="M153.25-145.44c-5.91,0-11.26-1.28-16.04-3.84-4.79-2.56-8.58-6.32-11.37-11.29-2.79-4.96-4.19-11.04-4.19-18.23s1.4-13.36,4.19-18.34c2.79-4.98,6.58-8.74,11.37-11.29,4.79-2.55,10.13-3.82,16.04-3.82s11.25,1.27,16.02,3.82c4.77,2.55,8.56,6.31,11.37,11.29,2.81,4.98,4.21,11.09,4.21,18.34s-1.4,13.31-4.21,18.27c-2.81,4.96-6.6,8.72-11.37,11.26-4.77,2.55-10.11,3.82-16.02,3.82ZM153.25-160.8c2.94,0,5.41-.69,7.4-2.07,1.99-1.38,3.5-3.41,4.52-6.09,1.02-2.68,1.53-5.95,1.53-9.82s-.51-7.2-1.53-9.89c-1.02-2.69-2.53-4.73-4.52-6.11-1.99-1.38-4.46-2.07-7.4-2.07s-5.36.69-7.36,2.07c-1.99,1.38-3.51,3.42-4.54,6.11-1.03,2.69-1.55,5.99-1.55,9.89s.52,7.14,1.55,9.82c1.03,2.68,2.55,4.71,4.54,6.09,1.99,1.38,4.45,2.07,7.36,2.07ZM147.93-170.41h13.71l4.98,6.2,8.38,9.52,10.91,13.18h-15.63l-7.77-8.99-5.15-7.51-9.43-12.4Z"/>
      <path d="M221.18-145.52c-5.59,0-10.48-.98-14.69-2.95-4.21-1.96-7.48-4.76-9.82-8.38-2.34-3.62-3.51-7.91-3.51-12.86v-41.65h17.64v40.16c0,2.04.45,3.83,1.35,5.39.9,1.56,2.13,2.78,3.69,3.67,1.56.89,3.34,1.33,5.35,1.33s3.84-.44,5.41-1.33c1.57-.89,2.81-2.11,3.71-3.67.9-1.56,1.35-3.35,1.35-5.39v-40.16h17.64v41.65c0,4.95-1.18,9.23-3.54,12.86-2.36,3.62-5.65,6.42-9.87,8.38-4.22,1.96-9.12,2.95-14.71,2.95Z"/>
      <path d="M257.68-146.31v-65.05h46.89v14.23h-29.25v11h26.8v13.88h-26.8v11.7h29.07v14.23h-46.71Z"/>
      <path d="M330.28-146.31v-65.05h17.64v24.71h23.4v-24.71h17.64v65.05h-17.64v-26.11h-23.4v26.11h-17.64Z"/>
      <path d="M395.15-146.31l21.09-65.05h24.1l21.87,65.05h-19.99l-7.55-25.23c-1.63-5.47-3.16-11.15-4.58-17.05-1.43-5.89-2.78-11.75-4.06-17.57h4.02c-1.22,5.82-2.46,11.68-3.71,17.57-1.25,5.89-2.66,11.58-4.23,17.05l-7.2,25.23h-19.73ZM410.78-158.79v-13.18h35.8v13.18h-35.8Z"/>
      <path d="M494.25-145.44c-5.94,0-11.27-1.28-16-3.84-4.73-2.56-8.47-6.32-11.22-11.29-2.75-4.96-4.13-11.04-4.13-18.23s1.4-13.36,4.19-18.34c2.79-4.98,6.56-8.74,11.31-11.29,4.74-2.55,10.03-3.82,15.85-3.82,4.04,0,7.78.55,11.2,1.64,3.42,1.09,6.42,2.69,9.02,4.78,2.59,2.1,4.69,4.67,6.29,7.73s2.6,6.55,3.01,10.48h-17.9c-.17-1.4-.55-2.66-1.11-3.8-.57-1.13-1.32-2.11-2.25-2.92-.93-.81-2.04-1.44-3.34-1.88-1.3-.44-2.76-.66-4.39-.66-2.94,0-5.44.72-7.49,2.16-2.05,1.44-3.6,3.51-4.65,6.2-1.05,2.69-1.57,5.93-1.57,9.71s.54,7.28,1.62,9.95c1.08,2.68,2.63,4.69,4.65,6.02,2.02,1.34,4.47,2.01,7.36,2.01,1.63,0,3.08-.22,4.37-.65,1.28-.44,2.4-1.06,3.36-1.88s1.74-1.79,2.34-2.92c.6-1.14,1-2.4,1.2-3.8h17.9c-.2,2.77-.97,5.59-2.29,8.47-1.32,2.88-3.22,5.54-5.67,7.99-2.46,2.44-5.49,4.42-9.08,5.92-3.59,1.5-7.78,2.25-12.55,2.25Z"/>
      <path d="M530.88-146.31v-65.05h46.89v14.23h-29.25v11h26.8v13.88h-26.8v11.7h29.07v14.23h-46.71Z"/>
      <path d="M585.66-146.31v-65.05h27.85l5.85,20.34c.49,1.75,1.06,4.06,1.7,6.94.64,2.88,1.27,5.97,1.9,9.28.63,3.3,1.2,6.48,1.72,9.52.52,3.04.93,5.61,1.22,7.71h-3.27c.29-2.1.69-4.66,1.2-7.71.51-3.04,1.08-6.21,1.7-9.52.63-3.3,1.25-6.4,1.88-9.28.63-2.88,1.19-5.2,1.68-6.94l5.76-20.34h27.9v65.05h-17.81v-25.15c0-1.48.04-3.46.11-5.92.07-2.46.15-5.16.24-8.1.09-2.94.17-5.89.24-8.86s.11-5.7.11-8.21h1c-.52,2.77-1.12,5.64-1.79,8.62-.67,2.98-1.35,5.89-2.05,8.73-.7,2.84-1.37,5.44-2.01,7.81-.64,2.37-1.19,4.34-1.66,5.92l-7.55,25.15h-14.67l-7.68-25.15c-.47-1.57-1.03-3.54-1.68-5.92-.66-2.37-1.35-4.98-2.07-7.81-.73-2.84-1.43-5.75-2.12-8.73-.68-2.98-1.3-5.86-1.86-8.62h1.27c0,2.5.04,5.24.11,8.21.07,2.97.15,5.92.24,8.86.09,2.94.17,5.64.24,8.1.07,2.46.11,4.43.11,5.92v25.15h-17.81Z"/>
      <path d="M701.61-145.44c-5.91,0-11.26-1.28-16.04-3.84-4.79-2.56-8.58-6.32-11.37-11.29-2.79-4.96-4.19-11.04-4.19-18.23s1.4-13.36,4.19-18.34c2.79-4.98,6.58-8.74,11.37-11.29,4.79-2.55,10.13-3.82,16.04-3.82s11.25,1.27,16.02,3.82c4.77,2.55,8.56,6.31,11.37,11.29,2.81,4.98,4.21,11.09,4.21,18.34s-1.4,13.31-4.21,18.27c-2.81,4.96-6.6,8.72-11.37,11.26-4.77,2.55-10.11,3.82-16.02,3.82ZM701.61-160.8c2.94,0,5.41-.69,7.4-2.07,1.99-1.38,3.5-3.41,4.52-6.09,1.02-2.68,1.53-5.95,1.53-9.82s-.51-7.2-1.53-9.89c-1.02-2.69-2.53-4.73-4.52-6.11-1.99-1.38-4.46-2.07-7.4-2.07s-5.36.69-7.36,2.07c-1.99,1.38-3.51,3.42-4.54,6.11-1.03,2.69-1.55,5.99-1.55,9.89s.52,7.14,1.55,9.82c1.03,2.68,2.55,4.71,4.54,6.09,1.99,1.38,4.45,2.07,7.36,2.07Z"/>
      <path d="M766.92-145.52c-5.65,0-10.57-.84-14.78-2.51-4.21-1.67-7.47-4.26-9.8-7.75-2.33-3.49-3.51-7.96-3.54-13.4h16.76c.12,1.98.62,3.65,1.51,5.02.89,1.37,2.14,2.4,3.75,3.1,1.62.7,3.56,1.05,5.83,1.05,1.89,0,3.48-.23,4.76-.7,1.28-.46,2.25-1.11,2.9-1.94.65-.83.98-1.78.98-2.86,0-.99-.31-1.86-.94-2.6-.63-.74-1.65-1.42-3.08-2.03-1.43-.61-3.35-1.16-5.76-1.66l-6.55-1.4c-5.73-1.22-10.25-3.31-13.56-6.26-3.3-2.95-4.96-6.98-4.96-12.07,0-4.13,1.12-7.75,3.36-10.85,2.24-3.1,5.33-5.51,9.28-7.25,3.94-1.73,8.49-2.6,13.64-2.6s9.81.88,13.64,2.64c3.83,1.76,6.78,4.24,8.86,7.42,2.08,3.19,3.14,6.91,3.17,11.15h-16.94c-.15-2.12-.92-3.78-2.34-4.96-1.41-1.18-3.54-1.77-6.4-1.77-1.8,0-3.29.21-4.45.63s-2.02,1.01-2.58,1.77c-.55.76-.83,1.62-.83,2.58,0,1.02.3,1.91.9,2.68.6.77,1.54,1.44,2.84,2.01,1.29.57,2.96,1.07,5,1.51l5.33,1.14c3.58.76,6.66,1.76,9.23,3.01,2.58,1.25,4.69,2.71,6.33,4.39,1.64,1.67,2.85,3.56,3.62,5.65.77,2.1,1.16,4.38,1.16,6.85,0,4.28-1.06,7.91-3.17,10.89-2.11,2.98-5.13,5.25-9.06,6.79-3.93,1.54-8.64,2.31-14.14,2.31Z"/>
      <path d="M817.82-146.31v-65.05h17.64v24.71h23.4v-24.71h17.64v65.05h-17.64v-26.11h-23.4v26.11h-17.64Z"/>
      <path d="M882.7-146.31l21.09-65.05h24.1l21.87,65.05h-19.99l-7.55-25.23c-1.63-5.47-3.16-11.15-4.58-17.05-1.43-5.89-2.78-11.75-4.06-17.57h4.02c-1.22,5.82-2.46,11.68-3.71,17.57-1.25,5.89-2.66,11.58-4.23,17.05l-7.2,25.23h-19.73ZM898.32-158.79v-13.18h35.8v13.18h-35.8Z"/>
      <path d="M955.95-146.31v-65.05h28.2c4.95,0,9.11.67,12.49,2.01,3.38,1.34,5.92,3.22,7.64,5.65,1.72,2.43,2.58,5.29,2.58,8.58,0,2.39-.52,4.57-1.57,6.55-1.05,1.98-2.51,3.63-4.39,4.96-1.88,1.32-4.08,2.23-6.61,2.73v.7c2.79.09,5.33.78,7.62,2.07,2.28,1.29,4.1,3.08,5.46,5.37,1.35,2.29,2.03,4.96,2.03,8.01,0,3.55-.92,6.72-2.75,9.5-1.83,2.78-4.45,4.96-7.86,6.55-3.41,1.59-7.47,2.38-12.18,2.38h-30.65ZM973.59-185.08h7.25c1.54,0,2.9-.24,4.08-.72s2.1-1.18,2.77-2.1c.67-.92,1-2.04,1-3.38,0-1.98-.72-3.51-2.16-4.58s-3.25-1.62-5.43-1.62h-7.51v12.4ZM973.59-160.37h8.29c2.94,0,5.16-.57,6.66-1.7,1.5-1.13,2.25-2.78,2.25-4.93,0-1.54-.35-2.84-1.05-3.91s-1.7-1.87-2.99-2.42c-1.3-.55-2.83-.83-4.61-.83h-8.56v13.8Z"/>
      <path d="M1015.67-146.31v-65.05h17.64v50.82h26.28v14.23h-43.92Z"/>
      <path d="M1064.04-146.31l21.09-65.05h24.1l21.87,65.05h-19.99l-7.55-25.23c-1.63-5.47-3.16-11.15-4.58-17.05s-2.78-11.75-4.06-17.57h4.02c-1.22,5.82-2.46,11.68-3.71,17.57-1.25,5.89-2.66,11.58-4.24,17.05l-7.2,25.23h-19.73ZM1079.67-158.79v-13.18h35.8v13.18h-35.8Z"/>
      <path d="M1155.11-146.31v-65.05h28.03c4.83,0,9.06.95,12.68,2.86,3.62,1.91,6.45,4.59,8.47,8.05,2.02,3.46,3.03,7.51,3.03,12.14s-1.03,8.68-3.1,12.07c-2.07,3.39-4.96,6.01-8.69,7.86-3.73,1.85-8.06,2.77-13.01,2.77h-16.76v-13.71h13.18c2.09,0,3.88-.37,5.37-1.11s2.62-1.78,3.41-3.12c.79-1.34,1.18-2.92,1.18-4.76s-.39-3.5-1.18-4.82-1.92-2.34-3.41-3.03c-1.48-.7-3.27-1.05-5.37-1.05h-6.2v50.9h-17.64Z"/>
      <path d="M1244.25-145.44c-5.91,0-11.26-1.28-16.04-3.84-4.79-2.56-8.58-6.32-11.37-11.29-2.79-4.96-4.19-11.04-4.19-18.23s1.4-13.36,4.19-18.34,6.58-8.74,11.37-11.29c4.79-2.55,10.13-3.82,16.04-3.82s11.25,1.27,16.02,3.82c4.77,2.55,8.56,6.31,11.37,11.29,2.81,4.98,4.21,11.09,4.21,18.34s-1.4,13.31-4.21,18.27c-2.81,4.96-6.6,8.72-11.37,11.26-4.77,2.55-10.11,3.82-16.02,3.82ZM1244.25-160.8c2.94,0,5.41-.69,7.4-2.07,1.99-1.38,3.5-3.41,4.52-6.09,1.02-2.68,1.53-5.95,1.53-9.82s-.51-7.2-1.53-9.89c-1.02-2.69-2.53-4.73-4.52-6.11-1.99-1.38-4.46-2.07-7.4-2.07s-5.36.69-7.36,2.07c-1.99,1.38-3.51,3.42-4.54,6.11-1.03,2.69-1.55,5.99-1.55,9.89s.52,7.14,1.55,9.82c1.03,2.68,2.55,4.71,4.54,6.09,1.99,1.38,4.45,2.07,7.36,2.07Z"/>
      <path d="M1283.11-146.31v-65.05h28.03c4.83,0,9.06.88,12.68,2.64,3.62,1.76,6.45,4.29,8.47,7.6,2.02,3.3,3.03,7.25,3.03,11.85s-1.03,8.59-3.1,11.79c-2.07,3.2-4.96,5.62-8.69,7.25-3.73,1.63-8.06,2.44-13.01,2.44h-16.76v-13.71h13.18c2.09,0,3.88-.26,5.37-.79,1.48-.52,2.62-1.35,3.41-2.49.79-1.13,1.18-2.63,1.18-4.5s-.39-3.38-1.18-4.54-1.92-2.02-3.41-2.58c-1.48-.55-3.27-.83-5.37-.83h-6.2v50.9h-17.64ZM1318.29-146.31l-15.89-29.86h18.77l16.33,29.86h-19.21Z"/>
      <path d="M1360.64-146.31v-65.05h19.21l15.5,25.54c1.34,2.21,2.59,4.42,3.75,6.64,1.16,2.21,2.29,4.65,3.38,7.31,1.09,2.66,2.2,5.77,3.34,9.32h-1.53c-.15-2.36-.33-5.09-.55-8.19-.22-3.1-.42-6.16-.59-9.17-.17-3.01-.26-5.55-.26-7.62v-23.84h18.16v65.05h-19.21l-14.45-23.75c-1.63-2.71-3.06-5.23-4.3-7.57-1.24-2.34-2.43-4.82-3.58-7.44-1.15-2.62-2.47-5.65-3.95-9.08h1.83c.23,3.06.46,6.1.68,9.12.22,3.03.39,5.84.52,8.43.13,2.59.2,4.77.2,6.55v23.75h-18.16Z"/>
      <path d="M1459.91-145.44c-5.91,0-11.26-1.28-16.04-3.84-4.79-2.56-8.58-6.32-11.37-11.29-2.79-4.96-4.19-11.04-4.19-18.23s1.4-13.36,4.19-18.34,6.58-8.74,11.37-11.29c4.79-2.55,10.13-3.82,16.04-3.82s11.25,1.27,16.02,3.82c4.77,2.55,8.56,6.31,11.37,11.29,2.81,4.98,4.21,11.09,4.21,18.34s-1.4,13.31-4.21,18.27c-2.81,4.96-6.6,8.72-11.37,11.26-4.77,2.55-10.11,3.82-16.02,3.82ZM1459.91-160.8c2.94,0,5.41-.69,7.4-2.07,1.99-1.38,3.5-3.41,4.52-6.09,1.02-2.68,1.53-5.95,1.53-9.82s-.51-7.2-1.53-9.89c-1.02-2.69-2.53-4.73-4.52-6.11-1.99-1.38-4.46-2.07-7.4-2.07s-5.36.69-7.36,2.07c-1.99,1.38-3.51,3.42-4.54,6.11-1.03,2.69-1.55,5.99-1.55,9.89s.52,7.14,1.55,9.82c1.03,2.68,2.55,4.71,4.54,6.09,1.99,1.38,4.45,2.07,7.36,2.07Z"/>
      <path d="M1525.22-145.52c-5.65,0-10.57-.84-14.78-2.51-4.21-1.67-7.47-4.26-9.8-7.75-2.33-3.49-3.51-7.96-3.54-13.4h16.76c.12,1.98.62,3.65,1.51,5.02.89,1.37,2.14,2.4,3.75,3.1,1.62.7,3.56,1.05,5.83,1.05,1.89,0,3.48-.23,4.76-.7,1.28-.46,2.25-1.11,2.9-1.94.66-.83.98-1.78.98-2.86,0-.99-.31-1.86-.94-2.6-.63-.74-1.65-1.42-3.08-2.03s-3.35-1.16-5.76-1.66l-6.55-1.4c-5.73-1.22-10.25-3.31-13.56-6.26s-4.95-6.98-4.95-12.07c0-4.13,1.12-7.75,3.36-10.85,2.24-3.1,5.33-5.51,9.28-7.25,3.94-1.73,8.49-2.6,13.64-2.6s9.82.88,13.64,2.64c3.83,1.76,6.78,4.24,8.86,7.42,2.08,3.19,3.14,6.91,3.17,11.15h-16.94c-.15-2.12-.92-3.78-2.34-4.96-1.41-1.18-3.54-1.77-6.4-1.77-1.8,0-3.29.21-4.45.63s-2.02,1.01-2.58,1.77c-.55.76-.83,1.62-.83,2.58,0,1.02.3,1.91.9,2.68.6.77,1.54,1.44,2.84,2.01s2.96,1.07,5,1.51l5.33,1.14c3.58.76,6.66,1.76,9.23,3.01,2.58,1.25,4.69,2.71,6.33,4.39,1.64,1.67,2.85,3.56,3.62,5.65.77,2.1,1.16,4.38,1.16,6.85,0,4.28-1.06,7.91-3.17,10.89-2.11,2.98-5.13,5.25-9.06,6.79-3.93,1.54-8.64,2.31-14.14,2.31Z"/>
      <path d="M1588.78-145.44c-5.91,0-11.26-1.28-16.04-3.84-4.79-2.56-8.58-6.32-11.37-11.29-2.79-4.96-4.19-11.04-4.19-18.23s1.4-13.36,4.19-18.34,6.58-8.74,11.37-11.29c4.79-2.55,10.13-3.82,16.04-3.82s11.25,1.27,16.02,3.82c4.77,2.55,8.56,6.31,11.37,11.29,2.81,4.98,4.21,11.09,4.21,18.34s-1.4,13.31-4.21,18.27c-2.81,4.96-6.6,8.72-11.37,11.26-4.77,2.55-10.11,3.82-16.02,3.82ZM1588.78-160.8c2.94,0,5.41-.69,7.4-2.07,1.99-1.38,3.5-3.41,4.52-6.09,1.02-2.68,1.53-5.95,1.53-9.82s-.51-7.2-1.53-9.89c-1.02-2.69-2.53-4.73-4.52-6.11-1.99-1.38-4.46-2.07-7.4-2.07s-5.36.69-7.36,2.07c-1.99,1.38-3.51,3.42-4.54,6.11-1.03,2.69-1.55,5.99-1.55,9.89s.52,7.14,1.55,9.82c1.03,2.68,2.55,4.71,4.54,6.09,1.99,1.38,4.45,2.07,7.36,2.07Z"/>
      <path d="M1622.88-197.12v-14.23h56.49v14.23h-19.43v50.82h-17.64v-50.82h-19.43Z"/>
      <path d="M1686-146.31v-65.05h28.03c4.83,0,9.06.88,12.68,2.64,3.62,1.76,6.45,4.29,8.47,7.6,2.02,3.3,3.03,7.25,3.03,11.85s-1.03,8.59-3.1,11.79c-2.07,3.2-4.96,5.62-8.69,7.25-3.73,1.63-8.06,2.44-13.01,2.44h-16.76v-13.71h13.18c2.09,0,3.88-.26,5.37-.79,1.48-.52,2.62-1.35,3.41-2.49.79-1.13,1.18-2.63,1.18-4.5s-.39-3.38-1.18-4.54-1.92-2.02-3.41-2.58c-1.48-.55-3.27-.83-5.37-.83h-6.2v50.9h-17.64ZM1721.19-146.31l-15.89-29.86h18.77l16.33,29.86h-19.21Z"/>
      <path d="M1776.2-145.44c-5.91,0-11.26-1.28-16.04-3.84-4.79-2.56-8.58-6.32-11.37-11.29-2.79-4.96-4.19-11.04-4.19-18.23s1.4-13.36,4.19-18.34,6.58-8.74,11.37-11.29c4.79-2.55,10.13-3.82,16.04-3.82s11.25,1.27,16.02,3.82c4.77,2.55,8.56,6.31,11.37,11.29,2.81,4.98,4.21,11.09,4.21,18.34s-1.4,13.31-4.21,18.27c-2.81,4.96-6.6,8.72-11.37,11.26-4.77,2.55-10.11,3.82-16.02,3.82ZM1776.2-160.8c2.94,0,5.41-.69,7.4-2.07,1.99-1.38,3.5-3.41,4.52-6.09,1.02-2.68,1.53-5.95,1.53-9.82s-.51-7.2-1.53-9.89c-1.02-2.69-2.53-4.73-4.52-6.11-1.99-1.38-4.46-2.07-7.4-2.07s-5.36.69-7.36,2.07c-1.99,1.38-3.51,3.42-4.54,6.11-1.03,2.69-1.55,5.99-1.55,9.89s.52,7.14,1.55,9.82c1.03,2.68,2.55,4.71,4.54,6.09,1.99,1.38,4.45,2.07,7.36,2.07Z"/>
      <path d="M1841.5-145.52c-5.65,0-10.57-.84-14.78-2.51-4.21-1.67-7.47-4.26-9.8-7.75-2.33-3.49-3.51-7.96-3.54-13.4h16.76c.12,1.98.62,3.65,1.51,5.02.89,1.37,2.14,2.4,3.75,3.1,1.62.7,3.56,1.05,5.83,1.05,1.89,0,3.48-.23,4.76-.7,1.28-.46,2.25-1.11,2.9-1.94.66-.83.98-1.78.98-2.86,0-.99-.31-1.86-.94-2.6-.63-.74-1.65-1.42-3.08-2.03s-3.35-1.16-5.76-1.66l-6.55-1.4c-5.73-1.22-10.25-3.31-13.56-6.26s-4.95-6.98-4.95-12.07c0-4.13,1.12-7.75,3.36-10.85,2.24-3.1,5.33-5.51,9.28-7.25,3.94-1.73,8.49-2.6,13.64-2.6s9.82.88,13.64,2.64c3.83,1.76,6.78,4.24,8.86,7.42,2.08,3.19,3.14,6.91,3.17,11.15h-16.94c-.15-2.12-.92-3.78-2.34-4.96-1.41-1.18-3.54-1.77-6.4-1.77-1.8,0-3.29.21-4.45.63s-2.02,1.01-2.58,1.77c-.55.76-.83,1.62-.83,2.58,0,1.02.3,1.91.9,2.68.6.77,1.54,1.44,2.84,2.01s2.96,1.07,5,1.51l5.33,1.14c3.58.76,6.66,1.76,9.23,3.01,2.58,1.25,4.69,2.71,6.33,4.39,1.64,1.67,2.85,3.56,3.62,5.65.77,2.1,1.16,4.38,1.16,6.85,0,4.28-1.06,7.91-3.17,10.89-2.11,2.98-5.13,5.25-9.06,6.79-3.93,1.54-8.64,2.31-14.14,2.31Z"/>
    </g>
  </g>
</svg>